<svg xmlns="http://www.w3.org/2000/svg" width="201" height="41" fill="none" viewBox="0 0 201 41"><circle cx="15.436" cy="18.017" r="14.458" fill="#61D3DE"/><path fill="#EA4256" fill-rule="evenodd" d="M1.1145 30.4119V27.1903C1.1145 26.0327 1.57436 24.9225 2.3929 24.1039L12.2135 14.2833C13.9181 12.5787 16.6817 12.5788 18.3862 14.2833L28.616 24.5131C29.4346 25.3317 29.8944 26.4419 29.8944 27.5995V27.7131H29.9065V31.1514C29.9065 34.8667 26.8946 37.8786 23.1793 37.8786H7.85637C4.14108 37.8786 1.12923 34.8667 1.12923 31.1514V30.7731C1.11948 30.6539 1.1145 30.5335 1.1145 30.4119Z" clip-rule="evenodd"/><path fill="#0A2143" fill-rule="evenodd" d="M2.34204 24.1555C2.3588 24.1382 2.37572 24.121 2.39279 24.1039L12.2134 14.2833C13.918 12.5787 16.6816 12.5788 18.3861 14.2833L28.4422 24.3394C26.0964 29.156 21.1539 32.475 15.4361 32.475C9.64587 32.475 4.65061 29.0713 2.34204 24.1555Z" clip-rule="evenodd"/><path fill="#0A2143" d="M42.3041 8.61787H48.552L55.151 24.7175H55.4318L62.0308 8.61787H68.2788V32.5801H63.3646V16.9836H63.1657L56.9646 32.4631H53.6183L47.4171 16.9251H47.2182V32.5801H42.3041V8.61787ZM79.1613 32.9311C77.3439 32.9311 75.7721 32.545 74.4461 31.7728C73.1279 30.9927 72.1099 29.9085 71.3923 28.5201C70.6747 27.1238 70.3159 25.5053 70.3159 23.6645C70.3159 21.808 70.6747 20.1856 71.3923 18.7971C72.1099 17.4009 73.1279 16.3167 74.4461 15.5444C75.7721 14.7644 77.3439 14.3744 79.1613 14.3744C80.9788 14.3744 82.5466 14.7644 83.8648 15.5444C85.1909 16.3167 86.2127 17.4009 86.9303 18.7971C87.6479 20.1856 88.0067 21.808 88.0067 23.6645C88.0067 25.5053 87.6479 27.1238 86.9303 28.5201C86.2127 29.9085 85.1909 30.9927 83.8648 31.7728C82.5466 32.545 80.9788 32.9311 79.1613 32.9311ZM79.1847 29.07C80.0115 29.07 80.7019 28.836 81.2557 28.368C81.8095 27.8922 82.2268 27.2447 82.5076 26.4257C82.7962 25.6067 82.9405 24.6746 82.9405 23.6293C82.9405 22.5841 82.7962 21.652 82.5076 20.833C82.2268 20.014 81.8095 19.3665 81.2557 18.8907C80.7019 18.4149 80.0115 18.177 79.1847 18.177C78.3501 18.177 77.6481 18.4149 77.0787 18.8907C76.517 19.3665 76.0919 20.014 75.8033 20.833C75.5225 21.652 75.3821 22.5841 75.3821 23.6293C75.3821 24.6746 75.5225 25.6067 75.8033 26.4257C76.0919 27.2447 76.517 27.8922 77.0787 28.368C77.6481 28.836 78.3501 29.07 79.1847 29.07ZM98.0498 32.9311C96.209 32.9311 94.6255 32.5411 93.2995 31.7611C91.9813 30.9732 90.9672 29.8812 90.2574 28.485C89.5554 27.0887 89.2044 25.4819 89.2044 23.6645C89.2044 21.8236 89.5593 20.209 90.2691 18.8205C90.9867 17.4243 92.0047 16.3362 93.3229 15.5561C94.6411 14.7683 96.209 14.3744 98.0264 14.3744C99.5942 14.3744 100.967 14.6591 102.145 15.2285C103.323 15.7979 104.255 16.5975 104.941 17.6271C105.628 18.6567 106.006 19.8658 106.076 21.2542H101.373C101.24 20.3572 100.889 19.6356 100.32 19.0896C99.7581 18.5358 99.0209 18.2589 98.1083 18.2589C97.3361 18.2589 96.6614 18.4695 96.0842 18.8907C95.5147 19.3041 95.0701 19.9087 94.7503 20.7043C94.4305 21.4999 94.2706 22.4632 94.2706 23.5942C94.2706 24.7409 94.4266 25.7159 94.7386 26.5193C95.0584 27.3227 95.5069 27.9351 96.0842 28.3563C96.6614 28.7775 97.3361 28.9881 98.1083 28.9881C98.6777 28.9881 99.1886 28.8711 99.641 28.6371C100.101 28.4031 100.48 28.0638 100.776 27.6192C101.08 27.1667 101.279 26.6246 101.373 25.9928H106.076C105.998 27.3656 105.624 28.5747 104.953 29.6199C104.29 30.6573 103.373 31.4685 102.203 32.0536C101.033 32.6386 99.6488 32.9311 98.0498 32.9311ZM112.466 27.4085L112.478 21.4297H113.203L118.96 14.6084H124.681L116.947 23.6411H115.765L112.466 27.4085ZM107.95 32.5801V8.61787H112.934V32.5801H107.95ZM119.182 32.5801L113.893 24.7526L117.216 21.2308L125.02 32.5801H119.182ZM133.188 32.9311C131.371 32.9311 129.799 32.545 128.473 31.7728C127.155 30.9927 126.137 29.9085 125.419 28.5201C124.702 27.1238 124.343 25.5053 124.343 23.6645C124.343 21.808 124.702 20.1856 125.419 18.7971C126.137 17.4009 127.155 16.3167 128.473 15.5444C129.799 14.7644 131.371 14.3744 133.188 14.3744C135.006 14.3744 136.574 14.7644 137.892 15.5444C139.218 16.3167 140.24 17.4009 140.957 18.7971C141.675 20.1856 142.034 21.808 142.034 23.6645C142.034 25.5053 141.675 27.1238 140.957 28.5201C140.24 29.9085 139.218 30.9927 137.892 31.7728C136.574 32.545 135.006 32.9311 133.188 32.9311ZM133.212 29.07C134.039 29.07 134.729 28.836 135.283 28.368C135.837 27.8922 136.254 27.2447 136.535 26.4257C136.823 25.6067 136.968 24.6746 136.968 23.6293C136.968 22.5841 136.823 21.652 136.535 20.833C136.254 20.014 135.837 19.3665 135.283 18.8907C134.729 18.4149 134.039 18.177 133.212 18.177C132.377 18.177 131.675 18.4149 131.106 18.8907C130.544 19.3665 130.119 20.014 129.83 20.833C129.55 21.652 129.409 22.5841 129.409 23.6293C129.409 24.6746 129.55 25.6067 129.83 26.4257C130.119 27.2447 130.544 27.8922 131.106 28.368C131.675 28.836 132.377 29.07 133.212 29.07ZM152.077 32.9311C150.259 32.9311 148.688 32.545 147.362 31.7728C146.043 30.9927 145.025 29.9085 144.308 28.5201C143.59 27.1238 143.231 25.5053 143.231 23.6645C143.231 21.808 143.59 20.1856 144.308 18.7971C145.025 17.4009 146.043 16.3167 147.362 15.5444C148.688 14.7644 150.259 14.3744 152.077 14.3744C153.894 14.3744 155.462 14.7644 156.78 15.5444C158.106 16.3167 159.128 17.4009 159.846 18.7971C160.563 20.1856 160.922 21.808 160.922 23.6645C160.922 25.5053 160.563 27.1238 159.846 28.5201C159.128 29.9085 158.106 30.9927 156.78 31.7728C155.462 32.545 153.894 32.9311 152.077 32.9311ZM152.1 29.07C152.927 29.07 153.617 28.836 154.171 28.368C154.725 27.8922 155.142 27.2447 155.423 26.4257C155.712 25.6067 155.856 24.6746 155.856 23.6293C155.856 22.5841 155.712 21.652 155.423 20.833C155.142 20.014 154.725 19.3665 154.171 18.8907C153.617 18.4149 152.927 18.177 152.1 18.177C151.266 18.177 150.564 18.4149 149.994 18.8907C149.433 19.3665 149.007 20.014 148.719 20.833C148.438 21.652 148.298 22.5841 148.298 23.6293C148.298 24.6746 148.438 25.6067 148.719 26.4257C149.007 27.2447 149.433 27.8922 149.994 28.368C150.564 28.836 151.266 29.07 152.1 29.07ZM162.845 39.3195V14.6084H167.759V17.6271H167.982C168.2 17.1435 168.516 16.6521 168.93 16.1529C169.351 15.6458 169.897 15.2246 170.568 14.8892C171.246 14.546 172.089 14.3744 173.095 14.3744C174.405 14.3744 175.614 14.7176 176.722 15.404C177.83 16.0827 178.715 17.1084 179.378 18.4812C180.041 19.8463 180.372 21.5584 180.372 23.6176C180.372 25.6223 180.049 27.3149 179.401 28.6956C178.762 30.0684 177.888 31.1097 176.78 31.8196C175.681 32.5216 174.448 32.8726 173.083 32.8726C172.116 32.8726 171.293 32.7127 170.614 32.3929C169.944 32.0731 169.394 31.6714 168.965 31.1877C168.536 30.6963 168.208 30.201 167.982 29.7018H167.83V39.3195H162.845ZM167.724 23.5942C167.724 24.6629 167.873 25.595 168.169 26.3906C168.465 27.1862 168.894 27.8064 169.456 28.251C170.018 28.6878 170.7 28.9062 171.504 28.9062C172.315 28.9062 173.001 28.6839 173.563 28.2393C174.124 27.7869 174.55 27.1628 174.838 26.3672C175.135 25.5638 175.283 24.6395 175.283 23.5942C175.283 22.5568 175.138 21.6442 174.85 20.8564C174.561 20.0686 174.136 19.4523 173.575 19.0077C173.013 18.5631 172.323 18.3408 171.504 18.3408C170.692 18.3408 170.006 18.5553 169.444 18.9843C168.891 19.4133 168.465 20.0218 168.169 20.8096C167.873 21.5974 167.724 22.5256 167.724 23.5942ZM197.33 19.7332L192.767 20.014C192.689 19.6239 192.522 19.2729 192.264 18.9609C192.007 18.6411 191.667 18.3876 191.246 18.2004C190.833 18.0054 190.337 17.9079 189.76 17.9079C188.988 17.9079 188.337 18.0717 187.806 18.3993C187.276 18.7191 187.011 19.1481 187.011 19.6863C187.011 20.1154 187.182 20.4781 187.526 20.7745C187.869 21.0709 188.458 21.3088 189.292 21.4882L192.545 22.1434C194.292 22.5022 195.595 23.0794 196.453 23.8751C197.311 24.6707 197.74 25.7159 197.74 27.0107C197.74 28.1886 197.393 29.2221 196.699 30.1113C196.012 31.0005 195.068 31.6948 193.867 32.194C192.674 32.6854 191.297 32.9311 189.737 32.9311C187.358 32.9311 185.462 32.4358 184.051 31.4451C182.646 30.4467 181.824 29.0895 181.582 27.3734L186.484 27.116C186.632 27.8415 186.991 28.3953 187.561 28.7775C188.13 29.1519 188.859 29.3391 189.749 29.3391C190.622 29.3391 191.324 29.1714 191.855 28.836C192.393 28.4928 192.666 28.0521 192.674 27.5138C192.666 27.0614 192.475 26.6909 192.1 26.4023C191.726 26.1059 191.149 25.8797 190.369 25.7237L187.256 25.1036C185.501 24.7526 184.195 24.1442 183.337 23.2783C182.487 22.4125 182.061 21.3088 182.061 19.9672C182.061 18.8127 182.373 17.8182 182.997 16.9836C183.629 16.149 184.515 15.5054 185.653 15.053C186.8 14.6006 188.142 14.3744 189.678 14.3744C191.948 14.3744 193.734 14.8541 195.037 15.8135C196.348 16.773 197.112 18.0795 197.33 19.7332Z"/><path fill="#EA4256" d="M135.688 35.3873C135.365 35.1306 134.895 35.1845 134.638 35.5078C134.382 35.8311 134.436 36.3013 134.759 36.558L135.688 35.3873ZM149.431 36.5012C149.723 36.2093 149.723 35.736 149.431 35.4441C149.139 35.1522 148.666 35.1522 148.374 35.4441L149.431 36.5012ZM134.759 36.558C136.111 37.6314 138.44 38.9103 141.095 39.2859C143.782 39.666 146.815 39.1171 149.431 36.5012L148.374 35.4441C146.146 37.6718 143.61 38.1319 141.304 37.8057C138.966 37.4749 136.878 36.332 135.688 35.3873L134.759 36.558Z"/><path stroke="#EA4256" stroke-linecap="round" stroke-width="1.196" d="M129.169 12.7261C132.271 11.8665 134.14 11.8291 136.008 12.7261M147.445 12.614C148.977 11.3806 151.1 11.1714 153.761 11.6796"/><path fill="#EA4256" d="M42.4781 37.6695C42.1564 37.7442 41.9561 38.0655 42.0308 38.3872C42.1055 38.7089 42.4268 38.9091 42.7485 38.8345L42.4781 37.6695ZM70.0974 35.4887C70.4083 35.3772 70.5699 35.0348 70.4584 34.7239C70.347 34.4131 70.0046 34.2514 69.6937 34.3629L70.0974 35.4887ZM42.7485 38.8345C50.3301 37.0748 54.5195 36.2077 56.7236 35.9928C57.2707 35.9394 57.6725 35.9288 57.9615 35.9495C58.2626 35.971 58.3795 36.0227 58.408 36.0407C58.4144 36.0447 58.3981 36.0354 58.3817 36.0076C58.3656 35.9801 58.3641 35.9597 58.3642 35.962C58.3658 35.9856 58.358 36.0754 58.2788 36.2713L59.3875 36.7196C59.4859 36.4764 59.5773 36.1819 59.5576 35.8831C59.5346 35.5355 59.3639 35.2295 59.0457 35.029C58.7695 34.8549 58.4186 34.7831 58.0467 34.7566C57.6627 34.7292 57.1862 34.746 56.6075 34.8025C54.3081 35.0267 50.0325 35.9161 42.4781 37.6695L42.7485 38.8345ZM58.2788 36.2713C58.1565 36.5738 58.097 36.9391 58.2573 37.2897C58.4179 37.6413 58.7323 37.8312 59.0317 37.9314C59.6028 38.1226 60.4387 38.0971 61.4091 37.9561C63.3995 37.667 66.3883 36.8187 70.0974 35.4887L69.6937 34.3629C66.003 35.6864 63.1055 36.5012 61.2372 36.7726C60.2782 36.9119 59.6915 36.8911 59.4113 36.7973C59.2849 36.755 59.3164 36.7301 59.345 36.7926C59.3731 36.8541 59.3323 36.8563 59.3875 36.7196L58.2788 36.2713Z"/><path stroke="#EA4256" stroke-linecap="round" stroke-width="1.121" d="M198.353 30.4785C197.896 31.9253 196.909 32.8106 195.693 33.4387"/><path stroke="#EA4256" stroke-linecap="round" stroke-width="1.046" d="M200.453 31.1387C199.764 32.8937 198.149 34.524 196.219 35.6969"/></svg>