<svg xmlns="http://www.w3.org/2000/svg" width="25" height="25" fill="none" viewBox="0 0 25 25"><path fill="#000" d="M7.85313 23.4376C17.2875 23.4376 22.4484 15.6204 22.4484 8.85323C22.4484 8.63448 22.4484 8.41261 22.4391 8.19386C23.4438 7.46649 24.311 6.56597 25 5.53448C24.0614 5.94831 23.0668 6.22105 22.0484 6.34386C23.1211 5.70267 23.9246 4.69381 24.3094 3.50479C23.3015 4.10186 22.1985 4.521 21.0484 4.74386C20.2753 3.92046 19.2522 3.37498 18.1376 3.19192C17.0231 3.00885 15.8793 3.19842 14.8833 3.73126C13.8874 4.2641 13.095 5.11046 12.6288 6.13926C12.1626 7.16806 12.0487 8.32188 12.3047 9.42198C10.2652 9.31972 8.27003 8.7899 6.4485 7.86689C4.62698 6.94388 3.01982 5.6483 1.73125 4.06417C1.07709 5.19399 0.877459 6.53042 1.17288 7.80208C1.46831 9.07375 2.23665 10.1853 3.32187 10.911C2.50866 10.8834 1.71331 10.665 1 10.2735V10.3439C1.0014 11.5274 1.41142 12.6742 2.16074 13.5904C2.91006 14.5065 3.95273 15.1358 5.1125 15.372C4.67229 15.4933 4.21755 15.5537 3.76094 15.5517C3.43904 15.5526 3.11778 15.5228 2.80156 15.4626C3.12935 16.4814 3.76761 17.3722 4.62695 18.0102C5.48628 18.6482 6.52365 19.0014 7.59375 19.0204C5.77587 20.4482 3.53031 21.2226 1.21875 21.2189C0.811439 21.2206 0.404411 21.1971 0 21.1485C2.34612 22.6443 5.07078 23.4385 7.85313 23.4376V23.4376Z"/></svg>