<svg xmlns="http://www.w3.org/2000/svg" width="351" height="71" fill="none" viewBox="0 0 351 71"><circle cx="26.279" cy="31.155" r="25.301" fill="#61D3DE"/><path fill="#EA4256" fill-rule="evenodd" d="M1.2168 52.8451V47.2075C1.2168 45.1818 2.0215 43.2391 3.45389 41.8067L20.6392 24.6214C23.622 21.6386 28.4581 21.6386 31.4409 24.6214L49.3422 42.5227C50.7746 43.9551 51.5793 45.8979 51.5793 47.9236V48.1224H51.6003V54.1392C51.6003 60.6407 46.3299 65.9111 39.8284 65.9111H13.0145C6.51305 65.9111 1.24258 60.6407 1.24258 54.1392V53.4771C1.2255 53.2687 1.2168 53.0579 1.2168 52.8451Z" clip-rule="evenodd"/><path fill="#0A2143" fill-rule="evenodd" d="M3.36499 41.897C3.39433 41.8667 3.42395 41.8366 3.45384 41.8067L20.6392 24.6214C23.622 21.6386 28.458 21.6386 31.4408 24.6214L49.0382 42.2187C44.9332 50.6473 36.2841 56.4554 26.2785 56.4554C16.1461 56.4554 7.4048 50.4992 3.36499 41.897Z" clip-rule="evenodd"/><path fill="#0A2143" d="M73.2951 14.7102H84.2285L95.7762 42.8832H96.2676L107.815 14.7102H118.749V56.6421H110.149V29.3495H109.801L98.9497 56.4373H93.094L82.2425 29.2471H81.8944V56.6421H73.2951V14.7102ZM137.792 57.2563C134.612 57.2563 131.861 56.5807 129.541 55.2293C127.234 53.8644 125.453 51.9671 124.197 49.5374C122.941 47.0941 122.313 44.2618 122.313 41.0405C122.313 37.7918 122.941 34.9527 124.197 32.5231C125.453 30.0798 127.234 28.1825 129.541 26.8311C131.861 25.4662 134.612 24.7837 137.792 24.7837C140.973 24.7837 143.716 25.4662 146.023 26.8311C148.343 28.1825 150.132 30.0798 151.387 32.5231C152.643 34.9527 153.271 37.7918 153.271 41.0405C153.271 44.2618 152.643 47.0941 151.387 49.5374C150.132 51.9671 148.343 53.8644 146.023 55.2293C143.716 56.5807 140.973 57.2563 137.792 57.2563ZM137.833 50.4997C139.28 50.4997 140.488 50.0902 141.457 49.2712C142.426 48.4386 143.157 47.3057 143.648 45.8725C144.153 44.4393 144.405 42.8081 144.405 40.9791C144.405 39.15 144.153 37.5189 143.648 36.0856C143.157 34.6524 142.426 33.5195 141.457 32.6869C140.488 31.8542 139.28 31.4379 137.833 31.4379C136.373 31.4379 135.144 31.8542 134.148 32.6869C133.165 33.5195 132.421 34.6524 131.916 36.0856C131.425 37.5189 131.179 39.15 131.179 40.9791C131.179 42.8081 131.425 44.4393 131.916 45.8725C132.421 47.3057 133.165 48.4386 134.148 49.2712C135.144 50.0902 136.373 50.4997 137.833 50.4997ZM170.846 57.2563C167.624 57.2563 164.853 56.5738 162.533 55.2089C160.226 53.8303 158.452 51.9193 157.209 49.476C155.981 47.0327 155.367 44.2209 155.367 41.0405C155.367 37.8191 155.988 34.9937 157.23 32.564C158.486 30.1207 160.267 28.2166 162.574 26.8516C164.881 25.473 167.624 24.7837 170.805 24.7837C173.548 24.7837 175.951 25.2819 178.012 26.2783C180.073 27.2747 181.704 28.6738 182.905 30.4756C184.106 32.2774 184.768 34.3931 184.891 36.8227H176.66C176.428 35.253 175.814 33.9904 174.818 33.0349C173.835 32.0658 172.545 31.5812 170.948 31.5812C169.597 31.5812 168.416 31.9498 167.406 32.6869C166.409 33.4103 165.631 34.4681 165.072 35.8604C164.512 37.2527 164.232 38.9384 164.232 40.9176C164.232 42.9241 164.505 44.6303 165.051 46.0363C165.611 47.4422 166.396 48.5137 167.406 49.2508C168.416 49.9879 169.597 50.3564 170.948 50.3564C171.944 50.3564 172.838 50.1516 173.63 49.7422C174.435 49.3327 175.097 48.7389 175.616 47.9609C176.148 47.1692 176.496 46.2205 176.66 45.1149H184.891C184.755 47.5173 184.099 49.633 182.926 51.462C181.765 53.2774 180.161 54.697 178.114 55.7207C176.067 56.7445 173.644 57.2563 170.846 57.2563ZM196.072 47.5923L196.093 37.1298H197.362L207.436 25.1932H217.448L203.914 40.9995H201.846L196.072 47.5923ZM188.169 56.6421V14.7102H196.891V56.6421H188.169ZM207.825 56.6421L198.57 42.9446L204.385 36.7818L218.042 56.6421H207.825ZM232.335 57.2563C229.155 57.2563 226.404 56.5807 224.084 55.2293C221.777 53.8644 219.996 51.9671 218.74 49.5374C217.484 47.0941 216.856 44.2618 216.856 41.0405C216.856 37.7918 217.484 34.9527 218.74 32.5231C219.996 30.0798 221.777 28.1825 224.084 26.8311C226.404 25.4662 229.155 24.7837 232.335 24.7837C235.516 24.7837 238.259 25.4662 240.566 26.8311C242.886 28.1825 244.674 30.0798 245.93 32.5231C247.186 34.9527 247.814 37.7918 247.814 41.0405C247.814 44.2618 247.186 47.0941 245.93 49.5374C244.674 51.9671 242.886 53.8644 240.566 55.2293C238.259 56.5807 235.516 57.2563 232.335 57.2563ZM232.376 50.4997C233.823 50.4997 235.031 50.0902 236 49.2712C236.969 48.4386 237.699 47.3057 238.191 45.8725C238.696 44.4393 238.948 42.8081 238.948 40.9791C238.948 39.15 238.696 37.5189 238.191 36.0856C237.699 34.6524 236.969 33.5195 236 32.6869C235.031 31.8542 233.823 31.4379 232.376 31.4379C230.916 31.4379 229.687 31.8542 228.691 32.6869C227.708 33.5195 226.964 34.6524 226.459 36.0856C225.968 37.5189 225.722 39.15 225.722 40.9791C225.722 42.8081 225.968 44.4393 226.459 45.8725C226.964 47.3057 227.708 48.4386 228.691 49.2712C229.687 50.0902 230.916 50.4997 232.376 50.4997ZM265.388 57.2563C262.208 57.2563 259.458 56.5807 257.137 55.2293C254.83 53.8644 253.049 51.9671 251.793 49.5374C250.538 47.0941 249.91 44.2618 249.91 41.0405C249.91 37.7918 250.538 34.9527 251.793 32.5231C253.049 30.0798 254.83 28.1825 257.137 26.8311C259.458 25.4662 262.208 24.7837 265.388 24.7837C268.569 24.7837 271.312 25.4662 273.619 26.8311C275.94 28.1825 277.728 30.0798 278.984 32.5231C280.239 34.9527 280.867 37.7918 280.867 41.0405C280.867 44.2618 280.239 47.0941 278.984 49.5374C277.728 51.9671 275.94 53.8644 273.619 55.2293C271.312 56.5807 268.569 57.2563 265.388 57.2563ZM265.429 50.4997C266.876 50.4997 268.084 50.0902 269.053 49.2712C270.023 48.4386 270.753 47.3057 271.244 45.8725C271.749 44.4393 272.002 42.8081 272.002 40.9791C272.002 39.15 271.749 37.5189 271.244 36.0856C270.753 34.6524 270.023 33.5195 269.053 32.6869C268.084 31.8542 266.876 31.4379 265.429 31.4379C263.969 31.4379 262.74 31.8542 261.744 32.6869C260.761 33.5195 260.017 34.6524 259.512 36.0856C259.021 37.5189 258.775 39.15 258.775 40.9791C258.775 42.8081 259.021 44.4393 259.512 45.8725C260.017 47.3057 260.761 48.4386 261.744 49.2712C262.74 50.0902 263.969 50.4997 265.429 50.4997ZM284.232 68.4354V25.1932H292.832V30.4756H293.221C293.603 29.6293 294.156 28.7694 294.879 27.8958C295.616 27.0086 296.572 26.2715 297.746 25.6846C298.933 25.084 300.407 24.7837 302.168 24.7837C304.461 24.7837 306.577 25.3843 308.515 26.5854C310.453 27.773 312.003 29.5679 313.163 31.9702C314.323 34.3589 314.903 37.3551 314.903 40.9586C314.903 44.4666 314.337 47.4285 313.204 49.8445C312.085 52.2469 310.556 54.0691 308.618 55.3112C306.693 56.5397 304.536 57.154 302.148 57.154C300.455 57.154 299.015 56.8741 297.828 56.3145C296.654 55.7549 295.691 55.0519 294.941 54.2056C294.19 53.3457 293.617 52.4789 293.221 51.6053H292.955V68.4354H284.232ZM292.77 40.9176C292.77 42.7876 293.03 44.4188 293.548 45.811C294.067 47.2033 294.818 48.2885 295.801 49.0665C296.783 49.8309 297.978 50.2131 299.384 50.2131C300.803 50.2131 302.004 49.8241 302.987 49.046C303.97 48.2543 304.714 47.1624 305.219 45.7701C305.738 44.3642 305.997 42.7467 305.997 40.9176C305.997 39.1022 305.744 37.5052 305.239 36.1266C304.734 34.748 303.99 33.6696 303.008 32.8916C302.025 32.1136 300.817 31.7246 299.384 31.7246C297.964 31.7246 296.763 32.0999 295.78 32.8507C294.811 33.6014 294.067 34.6661 293.548 36.0447C293.03 37.4233 292.77 39.0476 292.77 40.9176ZM344.578 34.161L336.593 34.6524C336.457 33.9699 336.163 33.3557 335.713 32.8097C335.262 32.2501 334.669 31.8065 333.932 31.4789C333.208 31.1376 332.341 30.967 331.331 30.967C329.98 30.967 328.84 31.2536 327.912 31.8269C326.984 32.3866 326.52 33.1373 326.52 34.0791C326.52 34.8299 326.82 35.4646 327.421 35.9833C328.021 36.502 329.052 36.9183 330.512 37.2322L336.204 38.3788C339.262 39.0067 341.541 40.0167 343.043 41.409C344.544 42.8013 345.295 44.6303 345.295 46.8962C345.295 48.9573 344.687 50.7659 343.473 52.322C342.271 53.878 340.62 55.0928 338.518 55.9664C336.429 56.8264 334.02 57.2563 331.29 57.2563C327.127 57.2563 323.81 56.3896 321.34 54.6561C318.883 52.9089 317.443 50.5338 317.02 47.5309L325.598 47.0805C325.858 48.3499 326.486 49.319 327.482 49.9879C328.478 50.643 329.755 50.9706 331.311 50.9706C332.84 50.9706 334.068 50.6772 334.996 50.0902C335.938 49.4896 336.416 48.7184 336.429 47.7766C336.416 46.9849 336.081 46.3366 335.426 45.8315C334.771 45.3128 333.761 44.917 332.396 44.644L326.95 43.5588C323.879 42.9446 321.592 41.8799 320.091 40.3648C318.603 38.8497 317.859 36.9183 317.859 34.5705C317.859 32.5504 318.405 30.81 319.497 29.3495C320.603 27.889 322.152 26.7629 324.145 25.9712C326.151 25.1795 328.499 24.7837 331.188 24.7837C335.16 24.7837 338.286 25.6231 340.565 27.302C342.858 28.981 344.196 31.2673 344.578 34.161Z"/><path fill="#EA4256" d="M236.71 61.5519C236.144 61.1026 235.322 61.197 234.872 61.7628C234.423 62.3285 234.518 63.1512 235.083 63.6005L236.71 61.5519ZM260.758 63.5011C261.269 62.9903 261.269 62.1621 260.758 61.6513C260.247 61.1405 259.419 61.1405 258.908 61.6513L260.758 63.5011ZM235.083 63.6005C237.449 65.4789 241.526 67.7169 246.171 68.374C250.873 69.0392 256.18 68.0787 260.758 63.5011L258.908 61.6513C255.01 65.5495 250.573 66.3548 246.537 65.7838C242.445 65.205 238.792 63.2051 236.71 61.5519L235.083 63.6005Z"/><path stroke="#EA4256" stroke-linecap="round" stroke-width="2.093" d="M225.302 21.8965C230.73 20.3923 234 20.3269 237.27 21.8965M257.282 21.7003C259.964 19.5421 263.679 19.1759 268.335 20.0653"/><path fill="#EA4256" d="M73.5996 65.5454C73.0367 65.6761 72.6862 66.2383 72.8169 66.8013C72.9475 67.3642 73.5098 67.7147 74.0728 67.584L73.5996 65.5454ZM121.931 61.7291C122.475 61.5341 122.758 60.9349 122.563 60.3909C122.368 59.8469 121.769 59.5641 121.225 59.7592L121.931 61.7291ZM74.0728 67.584C87.3401 64.5047 94.6711 62.9874 98.528 62.6113C99.4854 62.5179 100.189 62.4994 100.694 62.5355C101.221 62.5731 101.426 62.6636 101.476 62.6952C101.487 62.7022 101.458 62.686 101.43 62.6372C101.401 62.5891 101.399 62.5534 101.399 62.5574C101.402 62.5988 101.388 62.7559 101.25 63.0987L103.19 63.8831C103.362 63.4575 103.522 62.9422 103.487 62.4193C103.447 61.811 103.148 61.2757 102.592 60.9247C102.108 60.6201 101.494 60.4945 100.843 60.448C100.171 60.4001 99.3376 60.4296 98.3249 60.5284C94.3012 60.9207 86.8192 62.4772 73.5996 65.5454L74.0728 67.584ZM101.25 63.0987C101.036 63.628 100.931 64.2673 101.212 64.8809C101.493 65.496 102.043 65.8284 102.567 66.0038C103.567 66.3383 105.029 66.2937 106.727 66.047C110.21 65.541 115.441 64.0566 121.931 61.7291L121.225 59.7592C114.766 62.0751 109.696 63.501 106.426 63.9759C104.748 64.2197 103.722 64.1833 103.231 64.0192C103.01 63.9452 103.065 63.9015 103.115 64.0109C103.164 64.1186 103.093 64.1223 103.19 63.8831L101.25 63.0987Z"/><path stroke="#EA4256" stroke-linecap="round" stroke-width="1.962" d="M346.368 52.9619C345.568 55.4937 343.841 57.0429 341.713 58.142"/><path stroke="#EA4256" stroke-linecap="round" stroke-width="1.831" d="M350.042 54.1172C348.837 57.1883 346.011 60.0412 342.633 62.0938"/></svg>